<svg width="49" height="56" viewBox="0 0 49 56" fill="none" xmlns="http://www.w3.org/2000/svg">
<g id="racing" filter="url(#filter0_d_2730_463)">
<path id="Vector" d="M44.1259 2V40.272C44.1259 45.648 34.5971 45.712 34.5012 45.712C30.8239 45.712 27.5304 46.912 25.3241 49.072L24.3808 50L23.4375 49.072C21.2312 46.896 17.9377 45.712 14.2604 45.712C14.1645 45.712 4.63568 45.648 4.63568 40.272V2H44.1259Z" fill="#00273E"/>
<path id="Vector_2" d="M42.7837 3.34375V40.2717C42.7837 41.1037 42.4639 41.7598 41.7765 42.3517C41.1369 42.8957 40.2096 43.3597 39.0265 43.6957C36.8042 44.3357 34.5339 44.3517 34.5019 44.3517C30.441 44.3517 26.8437 45.6797 24.3816 48.1117C21.9194 45.6957 18.3221 44.3517 14.2612 44.3517C14.2452 44.3517 11.9589 44.3357 9.7366 43.6957C8.55349 43.3437 7.62619 42.8957 6.98667 42.3517C6.29919 41.7598 5.97943 41.1037 5.97943 40.2717V3.34375H42.7837Z" fill="#029CDC"/>
<path id="Vector_3" d="M11.1919 13.9204V42.7524C12.7907 43.0724 14.1977 43.1044 14.2616 43.1044C15.013 43.1044 15.7485 43.1524 16.4679 43.2324V13.9204H11.1919Z" fill="white"/>
<path id="Vector_4" d="M21.7419 13.9204V44.7364C22.7012 45.2004 23.5805 45.7604 24.3799 46.4164C25.1793 45.7604 26.0587 45.2004 27.018 44.7364V13.9204H21.7419Z" fill="white"/>
<path id="Vector_5" d="M32.2961 13.9204V43.2324C33.0156 43.1524 33.751 43.1044 34.5024 43.1044C34.5664 43.1044 35.9733 43.0884 37.5721 42.7524V13.9204H32.2961Z" fill="white"/>
<path id="Vector_6" d="M11.1919 13.9204V42.7684C12.8067 43.0884 14.1657 43.0884 14.2456 43.0884H14.3416C15.061 43.0884 15.7805 43.1204 16.4679 43.2004V13.9204C14.5654 13.9204 12.7747 13.9204 11.1919 13.9204Z" fill="white"/>
<path id="Vector_7" d="M21.7419 13.9204V44.7204C22.7012 45.2164 23.5965 45.8084 24.3959 46.4964C25.1793 45.8244 26.0587 45.2484 27.018 44.7684V13.9204H21.7419Z" fill="white"/>
<path id="Vector_8" d="M32.2961 13.9204V43.2324C32.9996 43.1524 33.735 43.1044 34.4705 43.1044H34.5184C35.3338 43.1044 36.453 42.9924 37.5561 42.7844V13.9204H32.2961Z" fill="white"/>
<path id="Vector_9" d="M11.1423 7.07214H9.79936V8.52814H11.1104C11.8778 8.52814 12.1976 8.28814 12.1976 7.77614C12.1816 7.29614 11.8938 7.07214 11.1423 7.07214ZM12.1656 9.07214L13.8763 11.0561H12.4534L11.1423 9.31214H9.78337V11.0561H8.60027V6.19214H11.1583C12.6452 6.19214 13.3967 6.75214 13.3967 7.71214C13.4126 8.36814 12.965 8.94414 12.1656 9.07214Z" fill="white"/>
<path id="Vector_10" d="M17.1067 7.44014L16.2434 9.20014H18.4018L17.5544 7.44014L17.3465 6.96014H17.3306L17.1067 7.44014ZM18.8174 10.0801H15.8117L15.3321 11.0721H14.069L16.6751 6.19214H17.9861L20.6081 11.0721H19.2811L18.8174 10.0801Z" fill="white"/>
<path id="Vector_11" d="M25.1951 7.29692C24.7954 7.16892 24.2838 7.07292 23.6922 7.07292C22.2853 7.07292 21.7897 7.55292 21.7897 8.62492C21.7897 9.76092 22.3013 10.2089 23.7242 10.2089C24.2838 10.2089 24.7794 10.0969 25.1951 9.93692L25.339 10.8009C24.8594 11.0089 24.2038 11.1689 23.5803 11.1689C21.5498 11.1689 20.5586 10.2249 20.5586 8.62492C20.5586 7.13692 21.5019 6.09692 23.6762 6.09692C24.2678 6.09692 24.9073 6.20892 25.323 6.35292L25.1951 7.29692Z" fill="white"/>
<path id="Vector_12" d="M27.4355 6.19214H26.2523V11.0721H27.4355V6.19214Z" fill="white"/>
<path id="Vector_13" d="M33.2881 11.0561L30.1225 8.04814L29.7548 7.68014H29.7388L29.7548 8.20814V11.0561H28.6836V6.19214H29.6589L32.6326 9.08814L33.0003 9.47214L33.0163 9.45614L33.0003 8.92814V6.19214H34.0555V11.0561H33.2881Z" fill="white"/>
<path id="Vector_14" d="M40.1443 10.8476C39.6327 11.0396 38.8652 11.1516 38.1458 11.1516C35.9075 11.1516 34.9482 10.1916 34.9482 8.62359C34.9482 7.07159 35.9075 6.07959 38.1458 6.07959C38.8013 6.07959 39.5207 6.17559 40.0323 6.35159L39.9204 7.29559C39.4248 7.13559 38.8173 7.03959 38.2097 7.03959C36.7388 7.03959 36.1952 7.48759 36.1952 8.60759C36.1952 9.69559 36.6909 10.1916 38.1138 10.1916C38.4975 10.1916 38.8333 10.1436 39.137 10.0636V8.51159H40.1603V10.8476H40.1443Z" fill="white"/>
</g>
<defs>
<filter id="filter0_d_2730_463" x="0.635681" y="0" width="47.4902" height="56" filterUnits="userSpaceOnUse" color-interpolation-filters="sRGB">
<feFlood flood-opacity="0" result="BackgroundImageFix"/>
<feColorMatrix in="SourceAlpha" type="matrix" values="0 0 0 0 0 0 0 0 0 0 0 0 0 0 0 0 0 0 127 0" result="hardAlpha"/>
<feOffset dy="2"/>
<feGaussianBlur stdDeviation="2"/>
<feComposite in2="hardAlpha" operator="out"/>
<feColorMatrix type="matrix" values="0 0 0 0 0 0 0 0 0 0 0 0 0 0 0 0 0 0 0.2 0"/>
<feBlend mode="normal" in2="BackgroundImageFix" result="effect1_dropShadow_2730_463"/>
<feBlend mode="normal" in="SourceGraphic" in2="effect1_dropShadow_2730_463" result="shape"/>
</filter>
</defs>
</svg>
